<mxfile host="app.diagrams.net" modified="2023-12-08T14:31:40.844Z" agent="Mozilla/5.0 (Windows NT 10.0; Win64; x64) AppleWebKit/537.36 (KHTML, like Gecko) Chrome/118.0.0.0 Safari/537.36 OPR/104.0.0.0 (Edition Yx GX 02)" etag="PPa4Sm8Cks_7i6eQWzLi" version="22.1.7" type="device">
  <diagram id="C5RBs43oDa-KdzZeNtuy" name="Page-1">
    <mxGraphModel dx="1361" dy="1833" grid="1" gridSize="10" guides="1" tooltips="1" connect="1" arrows="1" fold="1" page="1" pageScale="1" pageWidth="827" pageHeight="1169" math="0" shadow="0">
      <root>
        <mxCell id="WIyWlLk6GJQsqaUBKTNV-0" />
        <mxCell id="WIyWlLk6GJQsqaUBKTNV-1" parent="WIyWlLk6GJQsqaUBKTNV-0" />
        <mxCell id="QCMLpUDQp3wrdZk_nC-U-9" style="edgeStyle=orthogonalEdgeStyle;rounded=0;orthogonalLoop=1;jettySize=auto;html=1;" parent="WIyWlLk6GJQsqaUBKTNV-1" source="QCMLpUDQp3wrdZk_nC-U-1" edge="1">
          <mxGeometry relative="1" as="geometry">
            <mxPoint x="240" y="-40" as="targetPoint" />
          </mxGeometry>
        </mxCell>
        <mxCell id="QCMLpUDQp3wrdZk_nC-U-1" value="Начало" style="ellipse;whiteSpace=wrap;html=1;" parent="WIyWlLk6GJQsqaUBKTNV-1" vertex="1">
          <mxGeometry x="180" y="-150" width="120" height="80" as="geometry" />
        </mxCell>
        <mxCell id="QCMLpUDQp3wrdZk_nC-U-10" style="edgeStyle=orthogonalEdgeStyle;rounded=0;orthogonalLoop=1;jettySize=auto;html=1;exitX=0.5;exitY=1;exitDx=0;exitDy=0;" parent="WIyWlLk6GJQsqaUBKTNV-1" source="7kttLOD7_mlcvO_s7rn7-0" edge="1">
          <mxGeometry relative="1" as="geometry">
            <mxPoint x="240" y="40" as="sourcePoint" />
            <mxPoint x="240" y="60" as="targetPoint" />
          </mxGeometry>
        </mxCell>
        <mxCell id="QCMLpUDQp3wrdZk_nC-U-11" style="edgeStyle=orthogonalEdgeStyle;rounded=0;orthogonalLoop=1;jettySize=auto;html=1;entryX=0.5;entryY=0;entryDx=0;entryDy=0;" parent="WIyWlLk6GJQsqaUBKTNV-1" target="QCMLpUDQp3wrdZk_nC-U-5" edge="1">
          <mxGeometry relative="1" as="geometry">
            <mxPoint x="240" y="120" as="sourcePoint" />
          </mxGeometry>
        </mxCell>
        <mxCell id="QCMLpUDQp3wrdZk_nC-U-13" style="edgeStyle=orthogonalEdgeStyle;rounded=0;orthogonalLoop=1;jettySize=auto;html=1;exitX=0;exitY=0.5;exitDx=0;exitDy=0;" parent="WIyWlLk6GJQsqaUBKTNV-1" source="QCMLpUDQp3wrdZk_nC-U-5" target="QCMLpUDQp3wrdZk_nC-U-7" edge="1">
          <mxGeometry relative="1" as="geometry">
            <Array as="points">
              <mxPoint x="110" y="225" />
              <mxPoint x="110" y="325" />
              <mxPoint x="240" y="325" />
            </Array>
          </mxGeometry>
        </mxCell>
        <mxCell id="QCMLpUDQp3wrdZk_nC-U-21" value="Да" style="edgeLabel;html=1;align=center;verticalAlign=middle;resizable=0;points=[];" parent="QCMLpUDQp3wrdZk_nC-U-13" vertex="1" connectable="0">
          <mxGeometry x="-0.8203" y="2" relative="1" as="geometry">
            <mxPoint y="-17" as="offset" />
          </mxGeometry>
        </mxCell>
        <mxCell id="QCMLpUDQp3wrdZk_nC-U-20" style="edgeStyle=orthogonalEdgeStyle;rounded=0;orthogonalLoop=1;jettySize=auto;html=1;exitX=1;exitY=0.5;exitDx=0;exitDy=0;" parent="WIyWlLk6GJQsqaUBKTNV-1" source="QCMLpUDQp3wrdZk_nC-U-5" edge="1">
          <mxGeometry relative="1" as="geometry">
            <mxPoint x="240" y="-60" as="targetPoint" />
            <Array as="points">
              <mxPoint x="390" y="225" />
              <mxPoint x="390" y="-60" />
            </Array>
          </mxGeometry>
        </mxCell>
        <mxCell id="QCMLpUDQp3wrdZk_nC-U-22" value="Нет" style="edgeLabel;html=1;align=center;verticalAlign=middle;resizable=0;points=[];" parent="QCMLpUDQp3wrdZk_nC-U-20" vertex="1" connectable="0">
          <mxGeometry x="-0.8511" y="-1" relative="1" as="geometry">
            <mxPoint y="-16" as="offset" />
          </mxGeometry>
        </mxCell>
        <mxCell id="QCMLpUDQp3wrdZk_nC-U-5" value="Версия ПО устарела?" style="rhombus;whiteSpace=wrap;html=1;" parent="WIyWlLk6GJQsqaUBKTNV-1" vertex="1">
          <mxGeometry x="160" y="150" width="160" height="150" as="geometry" />
        </mxCell>
        <mxCell id="QCMLpUDQp3wrdZk_nC-U-17" style="edgeStyle=orthogonalEdgeStyle;rounded=0;orthogonalLoop=1;jettySize=auto;html=1;" parent="WIyWlLk6GJQsqaUBKTNV-1" source="QCMLpUDQp3wrdZk_nC-U-7" target="QCMLpUDQp3wrdZk_nC-U-16" edge="1">
          <mxGeometry relative="1" as="geometry" />
        </mxCell>
        <mxCell id="QCMLpUDQp3wrdZk_nC-U-7" value="Генерация отчета" style="shape=parallelogram;perimeter=parallelogramPerimeter;whiteSpace=wrap;html=1;fixedSize=1;" parent="WIyWlLk6GJQsqaUBKTNV-1" vertex="1">
          <mxGeometry x="160" y="350" width="160" height="70" as="geometry" />
        </mxCell>
        <mxCell id="QCMLpUDQp3wrdZk_nC-U-8" value="Конец" style="ellipse;whiteSpace=wrap;html=1;" parent="WIyWlLk6GJQsqaUBKTNV-1" vertex="1">
          <mxGeometry x="180" y="600" width="120" height="80" as="geometry" />
        </mxCell>
        <mxCell id="QCMLpUDQp3wrdZk_nC-U-18" style="edgeStyle=orthogonalEdgeStyle;rounded=0;orthogonalLoop=1;jettySize=auto;html=1;" parent="WIyWlLk6GJQsqaUBKTNV-1" source="QCMLpUDQp3wrdZk_nC-U-16" target="QCMLpUDQp3wrdZk_nC-U-8" edge="1">
          <mxGeometry relative="1" as="geometry" />
        </mxCell>
        <mxCell id="QCMLpUDQp3wrdZk_nC-U-16" value="Уведомление администратора" style="shape=parallelogram;perimeter=parallelogramPerimeter;whiteSpace=wrap;html=1;fixedSize=1;" parent="WIyWlLk6GJQsqaUBKTNV-1" vertex="1">
          <mxGeometry x="160" y="480" width="160" height="70" as="geometry" />
        </mxCell>
        <mxCell id="7kttLOD7_mlcvO_s7rn7-0" value="Сканирование" style="shape=parallelogram;perimeter=parallelogramPerimeter;whiteSpace=wrap;html=1;fixedSize=1;" vertex="1" parent="WIyWlLk6GJQsqaUBKTNV-1">
          <mxGeometry x="160" y="-40" width="160" height="70" as="geometry" />
        </mxCell>
        <mxCell id="7kttLOD7_mlcvO_s7rn7-1" value="Анализ результатов" style="shape=parallelogram;perimeter=parallelogramPerimeter;whiteSpace=wrap;html=1;fixedSize=1;" vertex="1" parent="WIyWlLk6GJQsqaUBKTNV-1">
          <mxGeometry x="160" y="60" width="160" height="70" as="geometry" />
        </mxCell>
      </root>
    </mxGraphModel>
  </diagram>
</mxfile>
